<svg xmlns="http://www.w3.org/2000/svg" xmlns:xlink="http://www.w3.org/1999/xlink">
  <!-- External link icon -->
  <symbol id="external-link-icon" viewBox="0 0 64 64">
    <path d="M 47.585938 -0.140625 C 47.035156 -0.140625 46.585938 0.304688 46.585938 0.859375 L 46.585938 6.515625 C 46.585938 7.066406 47.035156 7.515625 47.585938 7.515625 L 50.828125 7.515625 L 48.34375 10 L 9 10 C 7.347656 10 6 11.347656 6 13 L 6 55 C 6 56.652344 7.347656 58 9 58 L 51 58 C 52.652344 58 54 56.652344 54 55 L 54 15.65625 L 56.484375 13.171875 L 56.484375 16.414063 C 56.484375 16.964844 56.929688 17.414063 57.484375 17.414063 L 63.140625 17.414063 C 63.417969 17.414063 63.667969 17.300781 63.847656 17.121094 C 64.03125 16.941406 64.140625 16.691406 64.140625 16.414063 L 64.140625 0.859375 C 64.140625 0.304688 63.695313 -0.140625 63.140625 -0.140625 Z M 48.585938 1.859375 L 62.140625 1.859375 L 62.140625 15.414063 L 58.484375 15.414063 L 58.484375 10.757813 C 58.484375 10.351563 58.242188 9.988281 57.867188 9.832031 C 57.492188 9.675781 57.0625 9.765625 56.777344 10.050781 L 32.980469 33.847656 L 30.152344 31.019531 L 53.949219 7.222656 C 54.234375 6.9375 54.320313 6.507813 54.167969 6.132813 C 54.011719 5.757813 53.648438 5.515625 53.242188 5.515625 L 48.585938 5.515625 Z M 9 12 L 46.34375 12 L 28.03125 30.3125 C 27.636719 30.703125 27.636719 31.339844 28.03125 31.730469 L 32.269531 35.96875 C 32.664063 36.363281 33.296875 36.363281 33.6875 35.96875 L 52 17.65625 L 52 55 C 52 55.550781 51.550781 56 51 56 L 9 56 C 8.449219 56 8 55.550781 8 55 L 8 13 C 8 12.449219 8.449219 12 9 12 Z"></path>
  </symbol>
  
  <!-- Email icon -->
  <symbol id="email-icon" viewBox="0 0 64 64">
    <path d="M 23.65625 4 C 22.320313 4 21.066406 4.519531 20.121094 5.464844 L 13.464844 12.121094 C 12.519531 13.066406 12 14.320313 12 15.65625 L 12 22.433594 L 3.453125 27.5625 C 2.558594 28.097656 2 29.085938 2 30.132813 L 2 57 C 2 58.652344 3.347656 60 5 60 L 59 60 C 60.652344 60 62 58.652344 62 57 L 62 30.132813 C 62 29.085938 61.441406 28.097656 60.546875 27.5625 L 52 22.433594 L 52 7 C 52 5.347656 50.652344 4 49 4 Z"></path>
  </symbol>
  
  <!-- Phone icon -->
  <symbol id="phone-icon" viewBox="0 0 64 64">
    <path d="M 13 0 C 9.141 0 6 3.141 6 7 L 6 57 C 6 60.859 9.141 64 13 64 L 35 64 C 38.859 64 42 60.859 42 57 L 42 7 C 42 3.141 38.859 0 35 0 L 13 0 z"></path>
  </symbol>
</svg>