<svg xmlns="http://www.w3.org/2000/svg" xmlns:xlink="http://www.w3.org/1999/xlink">
  <!-- External link icon -->
  <symbol id="external-link-icon" viewBox="0 0 64 64">
    <path d="M 47.585938 -0.140625 C 47.035156 -0.140625 46.585938 0.304688 46.585938 0.859375 L 46.585938 6.515625 C 46.585938 7.066406 47.035156 7.515625 47.585938 7.515625 L 50.828125 7.515625 L 48.34375 10 L 9 10 C 7.347656 10 6 11.347656 6 13 L 6 55 C 6 56.652344 7.347656 58 9 58 L 51 58 C 52.652344 58 54 56.652344 54 55 L 54 15.65625 L 56.484375 13.171875 L 56.484375 16.414063 C 56.484375 16.964844 56.929688 17.414063 57.484375 17.414063 L 63.140625 17.414063 C 63.417969 17.414063 63.667969 17.300781 63.847656 17.121094 C 64.03125 16.941406 64.140625 16.691406 64.140625 16.414063 L 64.140625 0.859375 C 64.140625 0.304688 63.695313 -0.140625 63.140625 -0.140625 Z M 48.585938 1.859375 L 62.140625 1.859375 L 62.140625 15.414063 L 58.484375 15.414063 L 58.484375 10.757813 C 58.484375 10.351563 58.242188 9.988281 57.867188 9.832031 C 57.492188 9.675781 57.0625 9.765625 56.777344 10.050781 L 32.980469 33.847656 L 30.152344 31.019531 L 53.949219 7.222656 C 54.234375 6.9375 54.320313 6.507813 54.167969 6.132813 C 54.011719 5.757813 53.648438 5.515625 53.242188 5.515625 L 48.585938 5.515625 Z M 9 12 L 46.34375 12 L 28.03125 30.3125 C 27.636719 30.703125 27.636719 31.339844 28.03125 31.730469 L 32.269531 35.96875 C 32.664063 36.363281 33.296875 36.363281 33.6875 35.96875 L 52 17.65625 L 52 55 C 52 55.550781 51.550781 56 51 56 L 9 56 C 8.449219 56 8 55.550781 8 55 L 8 13 C 8 12.449219 8.449219 12 9 12 Z"></path>
  </symbol>
  
  <!-- Email icon -->
  <symbol id="email-icon" viewBox="0 0 64 64">
    <path d="M 23.65625 4 C 22.320313 4 21.066406 4.519531 20.121094 5.464844 L 13.464844 12.121094 C 12.519531 13.066406 12 14.320313 12 15.65625 L 12 22.433594 L 3.453125 27.5625 C 2.558594 28.097656 2 29.085938 2 30.132813 L 2 57 C 2 58.652344 3.347656 60 5 60 L 59 60 C 60.652344 60 62 58.652344 62 57 L 62 30.132813 C 62 29.085938 61.441406 28.097656 60.546875 27.5625 L 52 22.433594 L 52 7 C 52 5.347656 50.652344 4 49 4 Z M 24 6 L 49 6 C 49.550781 6 50 6.449219 50 7 L 50 31 C 50 31.550781 50.445313 32 51 32 C 51.554688 32 52 31.550781 52 31 L 52 24.765625 L 59.515625 29.277344 C 59.816406 29.457031 60 29.785156 60 30.132813 L 60 31.351563 L 33.226563 43.355469 C 32.449219 43.703125 31.550781 43.703125 30.773438 43.355469 L 4 31.351563 L 4 30.132813 C 4 29.785156 4.183594 29.453125 4.484375 29.277344 L 12 24.765625 L 12 31 C 12 31.550781 12.445313 32 13 32 C 13.554688 32 14 31.550781 14 31 L 14 16 L 21 16 C 22.652344 16 24 14.652344 24 13 Z M 22 6.5 L 22 13 C 22 13.550781 21.550781 14 21 14 L 14.5 14 C 14.609375 13.835938 14.734375 13.679688 14.878906 13.535156 L 21.535156 6.878906 C 21.679688 6.734375 21.835938 6.609375 22 6.5 Z M 31 16 C 27.140625 16 24 19.140625 24 23 L 24 29 C 24 32.859375 27.140625 36 31 36 L 37 36 C 37.554688 36 38 35.550781 38 35 C 38 34.449219 37.554688 34 37 34 L 31 34 C 28.242188 34 26 31.757813 26 29 L 26 23 C 26 20.242188 28.242188 18 31 18 L 33 18 C 35.757813 18 38 20.242188 38 23 L 38 29 C 38 29.550781 37.550781 30 37 30 C 36.449219 30 36 29.550781 36 29 L 36 24 C 36 21.792969 34.207031 20 32 20 C 29.792969 20 28 21.792969 28 24 L 28 28 C 28 30.207031 29.792969 32 32 32 C 33.050781 32 34 31.585938 34.714844 30.921875 C 35.265625 31.574219 36.078125 32 37 32 C 38.652344 32 40 30.652344 40 29 L 40 23 C 40 19.140625 36.859375 16 33 16 Z M 32 22 C 33.101563 22 34 22.898438 34 24 L 34 28 C 34 29.101563 33.101563 30 32 30 C 30.898438 30 30 29.101563 30 28 L 30 24 C 30 22.898438 30.898438 22 32 22 Z M 4 33.546875 L 29.953125 45.179688 C 30.605469 45.46875 31.304688 45.613281 32 45.613281 C 32.695313 45.613281 33.394531 45.46875 34.046875 45.179688 L 60 33.546875 L 60 57 C 60 57.550781 59.550781 58 59 58 L 5 58 C 4.449219 58 4 57.550781 4 57 Z M 7 50 C 6.445313 50 6 50.449219 6 51 L 6 53 C 6 53.550781 6.445313 54 7 54 C 7.554688 54 8 53.550781 8 53 L 8 51 C 8 50.449219 7.554688 50 7 50 Z M 12 50 C 11.445313 50 11 50.449219 11 51 L 11 53 C 11 53.550781 11.445313 54 12 54 C 12.554688 54 13 53.550781 13 53 L 13 51 C 13 50.449219 12.554688 50 12 50 Z M 17 50 C 16.445313 50 16 50.449219 16 51 L 16 53 C 16 53.550781 16.445313 54 17 54 C 17.554688 54 18 53.550781 18 53 L 18 51 C 18 50.449219 17.554688 50 17 50 Z M 22 50 C 21.445313 50 21 50.449219 21 51 L 21 53 C 21 53.550781 21.445313 54 22 54 C 22.554688 54 23 53.550781 23 53 L 23 51 C 23 50.449219 22.554688 50 22 50 Z M 27 50 C 26.445313 50 26 50.449219 26 51 L 26 53 C 26 53.550781 26.445313 54 27 54 C 27.554688 54 28 53.550781 28 53 L 28 51 C 28 50.449219 27.554688 50 27 50 Z M 32 50 C 31.445313 50 31 50.449219 31 51 L 31 53 C 31 53.550781 31.445313 54 32 54 C 32.554688 54 33 53.550781 33 53 L 33 51 C 33 50.449219 32.554688 50 32 50 Z M 37 50 C 36.445313 50 36 50.449219 36 51 L 36 53 C 36 53.550781 36.445313 54 37 54 C 37.554688 54 38 53.550781 38 53 L 38 51 C 38 50.449219 37.554688 50 37 50 Z M 42 50 C 41.445313 50 41 50.449219 41 51 L 41 53 C 41 53.550781 41.445313 54 42 54 C 42.554688 54 43 53.550781 43 53 L 43 51 C 43 50.449219 42.554688 50 42 50 Z M 47 50 C 46.445313 50 46 50.449219 46 51 L 46 53 C 46 53.550781 46.445313 54 47 54 C 47.554688 54 48 53.550781 48 53 L 48 51 C 48 50.449219 47.554688 50 47 50 Z M 52 50 C 51.445313 50 51 50.449219 51 51 L 51 53 C 51 53.550781 51.445313 54 52 54 C 52.554688 54 53 53.550781 53 53 L 53 51 C 53 50.449219 52.554688 50 52 50 Z M 57 50 C 56.445313 50 56 50.449219 56 51 L 56 53 C 56 53.550781 56.445313 54 57 54 C 57.554688 54 58 53.550781 58 53 L 58 51 C 58 50.449219 57.554688 50 57 50 Z"></path>
  </symbol>
  
  <!-- Phone icon -->
  <symbol id="phone-icon" viewBox="0 0 64 64">
    <path d="M 13 0 C 9.141 0 6 3.141 6 7 L 6 57 C 6 60.859 9.141 64 13 64 L 35 64 C 38.859 64 42 60.859 42 57 L 42 7 C 42 3.141 38.859 0 35 0 L 13 0 z M 13 2 L 35 2 C 37.757 2 40 4.243 40 7 L 40 8 L 8 8 L 8 7 C 8 4.243 10.243 2 13 2 z M 19 4 C 18.447 4 18 4.447 18 5 C 18 5.553 18.447 6 19 6 L 21 6 C 21.553 6 22 5.553 22 5 C 22 4.447 21.553 4 21 4 L 19 4 z M 25 4 C 24.447 4 24 4.447 24 5 C 24 5.553 24.447 6 25 6 L 29 6 C 29.553 6 30 5.553 30 5 C 30 4.447 29.553 4 29 4 L 25 4 z M 8 10 L 40 10 L 40 52 L 8 52 L 8 10 z M 51.876953 12.283203 C 51.621453 12.269953 51.359297 12.354062 51.154297 12.539062 C 50.744297 12.908062 50.710078 13.540172 51.080078 13.951172 C 55.542078 18.912172 58 25.322 58 32 C 58 38.68 55.542078 45.089781 51.080078 50.050781 C 50.710078 50.461781 50.744297 51.093891 51.154297 51.462891 C 51.345297 51.634891 51.584266 51.720703 51.822266 51.720703 C 52.095266 51.720703 52.369406 51.608672 52.566406 51.388672 C 57.360406 46.059672 60 39.175 60 32 C 60 24.827 57.359406 17.942281 52.566406 12.613281 C 52.381406 12.407281 52.132453 12.296453 51.876953 12.283203 z M 48.589844 17.623047 C 48.336219 17.589422 48.071063 17.651813 47.851562 17.820312 C 47.413562 18.156312 47.330969 18.784656 47.667969 19.222656 C 50.502969 22.914656 52 27.332 52 32 C 52 36.669 50.501062 41.087297 47.664062 44.779297 C 47.327062 45.217297 47.409656 45.844641 47.847656 46.181641 C 48.029656 46.321641 48.243078 46.388672 48.455078 46.388672 C 48.756078 46.388672 49.053 46.254047 49.25 45.998047 C 52.357 41.954047 54 37.113 54 32 C 54 26.888 52.358906 22.047906 49.253906 18.003906 C 49.085906 17.785906 48.843469 17.656672 48.589844 17.623047 z M 44.839844 23.167969 C 44.710828 23.182578 44.583391 23.223016 44.462891 23.291016 C 43.981891 23.562016 43.809078 24.171344 44.080078 24.652344 C 45.335078 26.884344 46 29.424 46 32 C 46 34.498 45.373453 36.969437 44.189453 39.148438 C 43.925453 39.633437 44.106797 40.242859 44.591797 40.505859 C 44.743797 40.587859 44.906359 40.626953 45.068359 40.626953 C 45.422359 40.626953 45.765266 40.436516 45.947266 40.103516 C 47.289266 37.632516 48 34.83 48 32 C 48 29.081 47.246266 26.200875 45.822266 23.671875 C 45.619016 23.311125 45.226891 23.124141 44.839844 23.167969 z M 12 30.056641 C 11.447 30.056641 11 30.503641 11 31.056641 L 11 33.056641 C 11 33.608641 11.447 34.056641 12 34.056641 C 12.553 34.056641 13 33.609641 13 33.056641 L 13 31.056641 C 13 30.503641 12.553 30.056641 12 30.056641 z M 17 30.056641 C 16.447 30.056641 16 30.503641 16 31.056641 L 16 33.056641 C 16 33.608641 16.447 34.056641 17 34.056641 C 17.553 34.056641 18 33.609641 18 33.056641 L 18 31.056641 C 18 30.503641 17.553 30.056641 17 30.056641 z M 22 30.056641 C 21.447 30.056641 21 30.503641 21 31.056641 L 21 33.056641 C 21 33.608641 21.447 34.056641 22 34.056641 C 22.553 34.056641 23 33.609641 23 33.056641 L 23 31.056641 C 23 30.503641 22.553 30.056641 22 30.056641 z M 27 30.056641 C 26.447 30.056641 26 30.503641 26 31.056641 L 26 33.056641 C 26 33.608641 26.447 34.056641 27 34.056641 C 27.553 34.056641 28 33.609641 28 33.056641 L 28 31.056641 C 28 30.503641 27.553 30.056641 27 30.056641 z M 32 30.056641 C 31.447 30.056641 31 30.503641 31 31.056641 L 31 33.056641 C 31 33.608641 31.447 34.056641 32 34.056641 C 32.553 34.056641 33 33.609641 33 33.056641 L 33 31.056641 C 33 30.503641 32.553 30.056641 32 30.056641 z M 37 30.056641 C 36.447 30.056641 36 30.503641 36 31.056641 L 36 33.056641 C 36 33.608641 36.447 34.056641 37 34.056641 C 37.553 34.056641 38 33.609641 38 33.056641 L 38 31.056641 C 38 30.503641 37.553 30.056641 37 30.056641 z M 8 54 L 40 54 L 40 57 C 40 59.757 37.757 62 35 62 L 13 62 C 10.243 62 8 59.757 8 57 L 8 54 z M 24 56 A 2 2 0 0 0 22 58 A 2 2 0 0 0 24 60 A 2 2 0 0 0 26 58 A 2 2 0 0 0 24 56 z"></path>
  </symbol>

  <!-- Loading icon -->
  <symbol id="loading-icon" viewbox="0 0 64 64">
    <path d="M 32 2 C 27.589 2 24 5.589 24 10 C 24 14.411 27.589 18 32 18 C 36.411 18 40 14.411 40 10 C 40 5.589 36.411 2 32 2 z M 32 4 C 35.309 4 38 6.691 38 10 C 38 13.309 35.309 16 32 16 C 28.691 16 26 13.309 26 10 C 26 6.691 28.691 4 32 4 z M 15 11 C 11.141 11 8 14.141 8 18 C 8 21.859 11.141 25 15 25 C 18.859 25 22 21.859 22 18 C 22 14.141 18.859 11 15 11 z M 49.5 11 C 44.813 11 41 14.813 41 19.5 C 41 24.187 44.813 28 49.5 28 C 54.187 28 58 24.187 58 19.5 C 58 14.813 54.187 11 49.5 11 z M 15 13 C 17.757 13 20 15.243 20 18 C 20 20.757 17.757 23 15 23 C 12.243 23 10 20.757 10 18 C 10 15.243 12.243 13 15 13 z M 49.5 13 C 53.084 13 56 15.916 56 19.5 C 56 23.084 53.084 26 49.5 26 C 45.916 26 43 23.084 43 19.5 C 43 15.916 45.916 13 49.5 13 z M 9 28 C 5.691 28 3 30.691 3 34 C 3 37.309 5.691 40 9 40 C 12.309 40 15 37.309 15 34 C 15 30.691 12.309 28 9 28 z M 9 30 C 11.206 30 13 31.794 13 34 C 13 36.206 11.206 38 9 38 C 6.794 38 5 36.206 5 34 C 5 31.794 6.794 30 9 30 z M 54.5 35 C 52.57 35 51 36.57 51 38.5 C 51 40.43 52.57 42 54.5 42 C 56.43 42 58 40.43 58 38.5 C 58 36.57 56.43 35 54.5 35 z M 54.5 37 C 55.327 37 56 37.673 56 38.5 C 56 39.327 55.327 40 54.5 40 C 53.673 40 53 39.327 53 38.5 C 53 37.673 53.673 37 54.5 37 z M 16 44 C 13.243 44 11 46.243 11 49 C 11 51.757 13.243 54 16 54 C 18.757 54 21 51.757 21 49 C 21 46.243 18.757 44 16 44 z M 16 46 C 17.654 46 19 47.346 19 49 C 19 50.654 17.654 52 16 52 C 14.346 52 13 50.654 13 49 C 13 47.346 14.346 46 16 46 z M 47 46 C 44.794 46 43 47.794 43 50 C 43 52.206 44.794 54 47 54 C 49.206 54 51 52.206 51 50 C 51 47.794 49.206 46 47 46 z M 47 48 C 48.103 48 49 48.897 49 50 C 49 51.103 48.103 52 47 52 C 45.897 52 45 51.103 45 50 C 45 48.897 45.897 48 47 48 z M 32 50 C 29.243 50 27 52.243 27 55 C 27 57.757 29.243 60 32 60 C 34.757 60 37 57.757 37 55 C 37 52.243 34.757 50 32 50 z M 32 52 C 33.654 52 35 53.346 35 55 C 35 56.654 33.654 58 32 58 C 30.346 58 29 56.654 29 55 C 29 53.346 30.346 52 32 52 z"></path>
  </symbol>
</svg>
